<?xml version="1.0" encoding="utf-8"?>
<!-- Generator: Adobe Illustrator 22.0.1, SVG Export Plug-In . SVG Version: 6.00 Build 0)  -->
<svg version="1.1" id="Layer_1" xmlns="http://www.w3.org/2000/svg" xmlns:xlink="http://www.w3.org/1999/xlink" x="0px" y="0px"
	 viewBox="0 0 100 100" style="enable-background:new 0 0 100 100;" xml:space="preserve">
<style type="text/css">
	.st0{fill:#B3B3B3;}
</style>
<title>Icons</title>
<g>
	<path class="st0" d="M11.5,32.6H2.8c-1.3,0-2.4,1.1-2.4,2.4c0,1.3,1.1,2.4,2.4,2.4l0,0h8.6c1.3,0,2.4-1.1,2.4-2.4
		C13.9,33.7,12.8,32.6,11.5,32.6L11.5,32.6z"/>
	<path class="st0" d="M97.2,32.6h-8.6c-1.3,0-2.4,1.1-2.4,2.4c0,1.3,1.1,2.4,2.4,2.4h8.6c1.3,0,2.4-1.1,2.4-2.4
		C99.6,33.7,98.5,32.6,97.2,32.6z"/>
	<path class="st0" d="M21.4,63.6c-0.9-0.9-2.5-0.9-3.4,0l0,0l-6.3,6.3c-0.9,0.9-0.9,2.5,0,3.4s2.5,0.9,3.4,0l6.3-6.3
		C22.3,66.1,22.3,64.5,21.4,63.6z"/>
	<path class="st0" d="M83.9,1.1c-0.9-0.9-2.5-0.9-3.4,0l0,0l-6.1,6.1c-1,0.9-1.1,2.4-0.2,3.4s2.4,1.1,3.4,0.2
		c0.1-0.1,0.1-0.1,0.2-0.2l6.1-6.1C84.9,3.5,84.9,2,83.9,1.1L83.9,1.1z"/>
	<path class="st0" d="M25.6,7.2l-6.1-6.1c-0.9-0.9-2.5-0.9-3.4,0s-0.9,2.5,0,3.4l6.1,6.1c0.9,0.9,2.5,0.9,3.4,0
		C26.5,9.6,26.5,8.1,25.6,7.2L25.6,7.2z"/>
	<path class="st0" d="M88.3,69.9L82,63.6c-1-0.9-2.5-0.7-3.4,0.3c-0.7,0.9-0.7,2.2,0,3.1l6.3,6.3c0.9,0.9,2.5,0.9,3.4,0
		S89.3,70.8,88.3,69.9L88.3,69.9z"/>
	<path class="st0" d="M50,6.9C33.4,6.9,19.9,21,19.9,38.4c0.2,8.6,2.9,16.9,7.9,23.8c3.7,5.1,5.8,11.2,5.9,17.5v15.1
		c0,2.7,2.1,4.8,4.8,4.8l0,0h22.9c2.7,0,4.8-2.1,4.8-4.8l0,0V79.7c0.1-6.3,2.2-12.4,5.9-17.5c5-7,7.8-15.3,7.9-23.8
		C80.1,21,66.6,6.9,50,6.9z M61.5,94.9h-23v-3.2H50c1.3-0.1,2.3-1.2,2.2-2.6c-0.1-1.2-1-2.2-2.2-2.2H38.5v-3.1h22.9L61.5,94.9
		L61.5,94.9z M46.6,50l-3.2-6.9h13.2L53.4,50c-0.1,0.3-0.2,0.6-0.2,0.9L51.3,79h-2.6l-1.9-28.1C46.8,50.6,46.8,50.3,46.6,50z
		 M68.3,59.4c-4.2,5.7-6.6,12.5-6.8,19.6h-5.4l1.8-27.3l4.6-9.9c0.6-1.2,0-2.6-1.2-3.2c-0.3-0.1-0.7-0.2-1-0.2H39.6
		c-1.3,0-2.4,1.1-2.4,2.4c0,0.4,0.1,0.7,0.2,1l4.6,9.9L43.9,79h-5.4c-0.3-7-2.6-13.8-6.8-19.5c-4.4-6.2-6.8-13.5-7-21.1
		C24.7,23.7,36,11.7,50,11.7s25.3,12,25.3,26.7C75.1,46,72.7,53.3,68.3,59.4L68.3,59.4z"/>
	<circle class="st0" cx="56.6" cy="89.3" r="2.7"/>
</g>
</svg>
