<?xml version="1.0" encoding="utf-8"?>
<!-- Generator: Adobe Illustrator 22.0.1, SVG Export Plug-In . SVG Version: 6.00 Build 0)  -->
<svg version="1.1" id="Layer_1" xmlns="http://www.w3.org/2000/svg" xmlns:xlink="http://www.w3.org/1999/xlink" x="0px" y="0px"
	 viewBox="0 0 100 100" style="enable-background:new 0 0 100 100;" xml:space="preserve">
<style type="text/css">
	.st0{fill:#B3B3B3;}
</style>
<title>Icons</title>
<g>
	<path class="st0" d="M98.3,4.1c-2.8-2.8-8.6-1.2-18,5.1c-8,5.4-17.6,13.5-27,23c-14,14-24.6,27.7-28.2,36.2
		c-0.6-0.2-1.2-0.4-1.8-0.5c-3.8-0.7-7.8,0.2-10.9,2.5c-3,2.2-5.2,5.4-6.1,9c-1,3.7-2.9,7.2-5.5,10.1c-0.8,1-0.7,2.4,0.2,3.2
		c3.3,2.9,7.5,4.5,11.9,4.4c4.5,0,8.8-1.5,12.4-4.1c1.2-0.9,2.4-1.9,3.4-3c3.2-3.3,4.6-7.8,4-12.3c8.3-3,22.8-14,37.4-28.6
		c9.4-9.4,17.6-19,23-27C99.6,12.7,101.2,7,98.3,4.1z M25.4,87c-0.8,0.9-1.8,1.7-2.7,2.4c-5.4,3.8-12,4.3-16.8,1.3
		c2.2-3,3.9-6.5,4.9-10.1l0,0v-0.1c0.7-2.5,2.2-4.7,4.3-6.2c2.1-1.6,4.7-2.2,7.3-1.8c1.9,0.4,3.7,1.5,4.7,3.2
		C29.2,78.9,28.5,83.7,25.4,87z M31.2,73.5c-0.5-1-1.2-1.9-2.1-2.6c1.8-4.2,4.2-8.2,6.9-11.8l7.3,7.3C38.3,70,34.1,72.4,31.2,73.5
		L31.2,73.5z M47.1,63.6l-8.2-8.2c1.4-1.8,3-3.7,4.6-5.7l9.3,9.3C50.8,60.6,48.9,62.1,47.1,63.6L47.1,63.6z M88.7,20.6
		C82.2,29.6,75,38.1,67,45.9c-3.7,3.7-7.2,7-10.7,10l-9.8-9.8c3.1-3.5,6.5-7.1,10-10.7c7.8-7.9,16.3-15.2,25.3-21.7
		C91.2,7.4,94.4,7.3,95,7.4C95.1,8.1,95.1,11.3,88.7,20.6L88.7,20.6z"/>
	<circle class="st0" cx="24" cy="81.2" r="2.7"/>
</g>
</svg>
