<?xml version="1.0" encoding="utf-8"?>
<!-- Generator: Adobe Illustrator 22.0.1, SVG Export Plug-In . SVG Version: 6.00 Build 0)  -->
<svg version="1.1" id="Layer_1" xmlns="http://www.w3.org/2000/svg" xmlns:xlink="http://www.w3.org/1999/xlink" x="0px" y="0px"
	 viewBox="0 0 100 100" style="enable-background:new 0 0 100 100;" xml:space="preserve">
<style type="text/css">
	.st0{fill:#B3B3B3;}
</style>
<title>Icons</title>
<g>
	<path class="st0" d="M50,29.8c-14.2,0-25.7,11.5-25.7,25.7S35.8,81.2,50,81.2s25.7-11.5,25.7-25.7l0,0C75.7,41.3,64.2,29.8,50,29.8
		z M50,77.1c-11.9,0-21.6-9.7-21.6-21.6S38.1,33.9,50,33.9s21.6,9.7,21.6,21.6l0,0C71.6,67.4,61.9,77,50,77.1z"/>
	<path class="st0" d="M50,39.4c-8.8,0-16,7.2-16,16s7.2,16,16,16s16-7.2,16-16S58.8,39.4,50,39.4z M50,67.6
		c-6.7,0-12.1-5.4-12.1-12.2S43.3,43.3,50,43.3s12.1,5.4,12.1,12.1C62.1,62.2,56.7,67.6,50,67.6z"/>
	<path class="st0" d="M93.5,22.3H67.2L64.5,15c-0.8-2.2-2.8-3.6-5.2-3.6H40.6c-2.3,0-4.4,1.4-5.2,3.6l-2.7,7.3h-9v-2.9
		c0-2.3-1.9-4.2-4.2-4.2h-6.2c-2.3,0-4.2,1.9-4.2,4.2v2.9H6.5c-3.6,0-6.5,2.9-6.5,6.5v53.3c0,3.6,2.9,6.5,6.5,6.4h87.1
		c3.6,0,6.5-2.9,6.5-6.4V28.8C100,25.2,97.1,22.3,93.5,22.3z M39.5,16.5c0.2-0.5,0.6-0.8,1.1-0.8h18.7c0.5,0,0.9,0.3,1.1,0.8
		l2.2,5.8H37.4L39.5,16.5z M13.4,19.5c0-0.1,0-0.1,0.1-0.1l0,0h6.2c0.1,0,0.1,0,0.1,0.1l0,0v2.9h-6.4L13.4,19.5z M4.4,38.7h6.4v33.7
		H4.3L4.4,38.7z M95.7,82.1c0,1.2-1,2.2-2.2,2.2l0,0h-87c-1.2,0-2.2-1-2.2-2.2v-5.5h8.5c1.2,0,2.2-1,2.2-2.1l0,0v-38
		c0-1.2-1-2.2-2.2-2.2H4.3v-5.5c0-1.2,1-2.2,2.2-2.1h87.1c1.2,0,2.2,1,2.2,2.1v5.5h-8.5c-1.2,0-2.2,1-2.2,2.1l0,0v38
		c0,1.2,1,2.2,2.2,2.2h8.5L95.7,82.1L95.7,82.1z M95.7,72.3h-6.4V38.6h6.4V72.3z"/>
	<circle class="st0" cx="45.2" cy="49.4" r="2.7"/>
</g>
</svg>
