<?xml version="1.0" encoding="utf-8"?>
<!-- Generator: Adobe Illustrator 22.0.1, SVG Export Plug-In . SVG Version: 6.00 Build 0)  -->
<svg version="1.1" id="Layer_1" xmlns="http://www.w3.org/2000/svg" xmlns:xlink="http://www.w3.org/1999/xlink" x="0px" y="0px"
	 viewBox="0 0 100 100" style="enable-background:new 0 0 100 100;" xml:space="preserve">
<style type="text/css">
	.st0{fill:#B3B3B3;}
</style>
<title>Icons</title>
<g>
	<path class="st0" d="M93,21.1H74.3V10.6c0-1.2-0.9-2.1-2.1-2.1l0,0H27.8c-1.2,0-2.1,0.9-2.1,2.1l0,0v10.5H7c-3.9,0-7,3.1-7,7v33.8
		c0,3.9,3.1,7,7,7h18.7v20.5c0,1.2,0.9,2.1,2.1,2.1l0,0h44.3c1.2,0,2.1-0.9,2.1-2.1l0,0V69H93c3.9,0,7-3.1,7-7V28.2
		C100,24.3,96.9,21.2,93,21.1z M74.3,25.4h5v5.9h-5V25.4z M30,12.7h40.1v18.6H30V12.7z M20.7,25.4h5.1v5.9h-5.1V25.4z M70.1,87.3H30
		v-28h40.1V87.3z M95.8,61.9L95.8,61.9c0,1.5-1.3,2.8-2.8,2.8l0,0H74.3v-5.4h3.9c1.2,0,2.1-0.9,2.1-2.1c0-1.2-0.9-2.1-2.1-2.1l0,0
		H21.8c-1.2,0-2.1,1-2.1,2.1c0,1.2,0.9,2.1,2.1,2.1h3.9v5.4H7c-1.5,0-2.8-1.3-2.8-2.8V28.2c0-1.5,1.3-2.8,2.8-2.8h9.4v8.1
		c0,1.2,0.9,2.1,2.1,2.1l0,0h63c1.2,0,2.1-0.9,2.1-2.1l0,0v-8H93c1.5,0,2.8,1.3,2.8,2.8V61.9z"/>
	<circle class="st0" cx="13.4" cy="42.8" r="2.7"/>
	<path class="st0" d="M49.4,75.5h-9.9c-1.2,0-2.1,0.9-2.1,2.1s0.9,2.1,2.1,2.1l0,0h9.9c1.2,0,2.1-0.9,2.1-2.1S50.6,75.5,49.4,75.5
		L49.4,75.5z"/>
	<path class="st0" d="M60.5,64.7h-21c-1.2,0-2.1,0.9-2.1,2.1s0.9,2.1,2.1,2.1l0,0h21c1.2,0,2.1-0.9,2.1-2.1
		C62.6,65.7,61.7,64.7,60.5,64.7L60.5,64.7z"/>
</g>
</svg>
