<?xml version="1.0" encoding="utf-8"?>
<!-- Generator: Adobe Illustrator 22.0.1, SVG Export Plug-In . SVG Version: 6.00 Build 0)  -->
<svg version="1.1" id="Layer_1" xmlns="http://www.w3.org/2000/svg" xmlns:xlink="http://www.w3.org/1999/xlink" x="0px" y="0px"
	 viewBox="0 0 100 100" style="enable-background:new 0 0 100 100;" xml:space="preserve">
<style type="text/css">
	.st0{fill:#B3B3B3;}
</style>
<title>Icons</title>
<g>
	<path class="st0" d="M93.8,5.6H6.2c-3.3,0-6,2.7-6,6l0,0v60.5c0,3.3,2.7,6,6,6h30v4.4c0,4-2.3,7.3-6.3,7.3h-4.6
		c-1.3-0.1-2.4,0.9-2.4,2.1c-0.1,1.3,0.9,2.4,2.1,2.4c0.1,0,0.2,0,0.3,0h49.4c1.3,0.1,2.4-0.9,2.4-2.1c0.1-1.3-0.9-2.4-2.1-2.4
		c-0.1,0-0.2,0-0.3,0h-4.6c-4,0-6.3-3.3-6.3-7.3v-4.4h30c3.3,0,6-2.7,6-6V11.6C99.8,8.3,97.1,5.6,93.8,5.6z M38.3,89.8
		c1.6-2.1,2.5-4.6,2.5-7.3v-4.4h18.4v4.4c0,2.6,0.9,5.2,2.5,7.3H38.3z M95.3,72.1c0,0.8-0.6,1.4-1.4,1.4H6.2c-0.8,0-1.4-0.6-1.4-1.4
		V60h90.5V72.1z M95.3,55.5H4.8V11.6c0-0.8,0.6-1.4,1.4-1.4l0,0h87.6c0.8,0,1.4,0.6,1.4,1.4l0,0L95.3,55.5L95.3,55.5z"/>
	<circle class="st0" cx="50" cy="66.8" r="2.5"/>
	<path class="st0" d="M53.9,21.4c-0.9-0.9-2.3-0.9-3.2,0l0,0L34.5,37.7c-0.9,0.9-0.8,2.4,0.1,3.2c0.9,0.8,2.2,0.8,3.1,0l16.2-16.2
		C54.8,23.8,54.8,22.3,53.9,21.4L53.9,21.4z"/>
	<path class="st0" d="M63.6,30.8c-0.9-0.9-2.3-0.9-3.2,0l0,0l-6.5,6.5c-0.9,0.9-0.9,2.3,0,3.2l0,0c0.9,0.9,2.3,0.9,3.2,0l6.5-6.5
		C64.5,33.2,64.5,31.7,63.6,30.8z"/>
</g>
</svg>
