<?xml version="1.0" encoding="utf-8"?>
<!-- Generator: Adobe Illustrator 22.0.1, SVG Export Plug-In . SVG Version: 6.00 Build 0)  -->
<svg version="1.1" id="Layer_1" xmlns="http://www.w3.org/2000/svg" xmlns:xlink="http://www.w3.org/1999/xlink" x="0px" y="0px"
	 viewBox="0 0 1000 1000" style="enable-background:new 0 0 1000 1000;" xml:space="preserve">
<style type="text/css">
	.st0{fill:#FFFFFF;stroke:#FFFFFF;stroke-width:5;stroke-miterlimit:10;}
	.st1{fill:#FFFFFF;stroke:#FFFFFF;stroke-width:2;stroke-miterlimit:10;}
</style>
<g>
	<g>
		<path class="st0" d="M604.1,683.4c-2.2-2.2-5.8-2.2-8.1,0l-70.8,70.9l-70.9-70.9c-2.2-2.2-5.8-2.2-8.1,0c-2.2,2.2-2.2,5.8,0,8.1
			l74.8,74.8c1.1,1.1,2.5,1.7,4,1.7c1.4,0,2.9-0.6,4-1.7l74.8-74.8C606.3,689.2,606.3,685.6,604.1,683.4L604.1,683.4z M604.1,683.4"
			/>
	</g>
</g>
<g>
	<path class="st1" d="M525.1,232.1c-75.3,0-136.5,61.2-136.5,136.5v136.7c0,75.2,61.3,136.5,136.5,136.5
		c75.3,0,136.5-61.2,136.5-136.5V368.5C661.6,293.3,600.4,232.1,525.1,232.1L525.1,232.1z M646.4,505.2
		c0,66.9-54.4,121.3-121.4,121.3c-66.9,0-121.4-54.4-121.4-121.3V368.5c0-66.9,54.4-121.3,121.4-121.3
		c66.9,0,121.4,54.4,121.4,121.3V505.2z M646.4,505.2"/>
	<path class="st1" d="M525.1,277.6c-4.2,0-7.6,3.4-7.6,7.6v68.7c0,4.2,3.4,7.6,7.6,7.6c4.2,0,7.6-3.4,7.6-7.6v-68.7
		C532.7,281,529.3,277.6,525.1,277.6L525.1,277.6z M525.1,277.6"/>
</g>
</svg>
